<?xml version="1.0" encoding="iso-8859-1"?>
<!-- Generator: Adobe Illustrator 19.0.0, SVG Export Plug-In . SVG Version: 6.00 Build 0)  -->
<svg version="1.1" id="Capa_1" xmlns="http://www.w3.org/2000/svg" xmlns:xlink="http://www.w3.org/1999/xlink" x="0px" y="0px"
	 viewBox="0 0 512 512" style="enable-background:new 0 0 512 512;" xml:space="preserve">
<path style="fill:#6BC5DC;" d="M512,256c0,141.385-114.615,256-256,256S0,397.385,0,256S114.615,0,256,0S512,114.615,512,256z"/>
<path style="fill:#CB2C2C;" d="M256,0L256,0c43.078,0,78,34.922,78,78v42h-30V78c0-26.51-21.49-48-48-48l0,0
	c-26.51,0-48,21.49-48,48v42h-30V78C178,34.922,212.922,0,256,0z"/>
<path style="fill:#A82B2B;" d="M465.617,402.972c-12.653,18.013-27.569,34.32-44.335,48.508
	c-28.159,23.831-71.496,5.651-74.426-31.122c-2.317-29.076-4.372-55.82-4.372-55.82c-1.209-16.524,11.206-30.9,27.731-32.109
	l59.84-4.378c16.524-1.209,30.9,11.206,32.109,27.731L465.617,402.972z M141.785,332.429l-59.84-4.378
	c-16.524-1.209-30.9,11.206-32.109,27.731l-3.453,47.191c12.659,18.021,27.582,34.334,44.357,48.527
	c28.153,23.82,71.472,5.649,74.401-31.112c2.318-29.087,4.375-55.849,4.375-55.849C170.725,348.014,158.31,333.638,141.785,332.429z
	 M256,0c-43.078,0-78,34.922-78,78v42h22V78c0-39.343,29.133-71.865,67-77.213C263.405,0.279,259.736,0,256,0L256,0z"/>
<path style="fill:#EF6161;" d="M98.264,224.378l6.151-70.74c4.368-50.232,46.419-88.785,96.84-88.785h109.489
	c50.421,0,92.472,38.553,96.84,88.785l6.151,70.74L98.264,224.378L98.264,224.378z"/>
<g>
	<path style="fill:#EA4444;" d="M88.483,449.587c-5.111-13.305-7.37-27.972-6.044-43.213l21.977-252.735
		c4.368-50.232,46.419-88.785,96.84-88.785h17c-50.421,0-92.472,38.553-96.84,88.785L99.438,406.374
		c-1.26,14.49,0.725,28.457,5.315,41.232c-3.067,2.604-6.071,5.279-9.012,8.022C93.287,453.655,90.862,451.647,88.483,449.587z"/>
	<path style="fill:#EA4444;" d="M88.483,449.587c-5.111-13.305-7.37-27.972-6.044-43.213L99.96,204.877
		c16.76-36.808,53.839-62.023,96.399-62.023h119.284c42.559,0,79.639,25.215,96.399,62.023l17.521,201.496
		c1.325,15.242-0.934,29.908-6.044,43.213c-2.004,1.736-4.045,3.43-6.103,5.104c-21.634-21.896-51.227-35.711-83.972-36.519
		c-1.096-0.027-2.195-0.041-3.298-0.041h-148.29c-1.102,0-2.202,0.014-3.298,0.041c-32.746,0.808-62.338,14.623-83.972,36.519
		C92.528,453.017,90.487,451.323,88.483,449.587z"/>
</g>
<path style="fill:#D93131;" d="M103.062,459.875c-5.177-3.092-10.028-6.346-14.58-10.288c-5.111-13.305-7.37-27.972-6.044-43.213
	L99.96,204.877c16.76-36.808,53.839-62.023,96.399-62.023h17.5c-42.559,0-79.639,25.215-96.399,62.023L99.938,406.374
	c-1.325,15.242,0.934,29.908,6.044,43.213C148.826,486.694,115.179,467.11,103.062,459.875z"/>
<path style="fill:#FFC143;" d="M94.515,454.633l2.865-32.951c4.389-50.476,45.674-90.399,96.325-91.649
	c0.882-0.022,1.766-0.033,2.653-0.033h119.284c0.887,0,1.771,0.011,2.653,0.033c50.651,1.25,91.936,41.173,96.325,91.649
	l2.865,32.951C373.431,490.492,317.231,512,256,512S138.569,490.492,94.515,454.633z"/>
<path style="fill:#174550;" d="M200,110h20v25c0,2.761-2.239,5-5,5h-10c-2.761,0-5-2.239-5-5V110z M370,393v32c0,2.761,2.239,5,5,5
	h10c2.761,0,5-2.239,5-5v-32H370z"/>
<path style="fill:#FFAA00;" d="M115.381,421.682l-2.865,32.951c41.885,34.094,94.755,55.199,152.485,57.196
	c-2.989,0.103-5.986,0.171-9,0.171c-61.231,0-117.431-21.508-161.485-57.367l2.865-32.951c4.389-50.476,45.674-90.399,96.325-91.649
	c0.882-0.022,1.766-0.033,2.653-0.033h18c-0.887,0-1.771,0.011-2.653,0.033c-39.43,0.973-73.177,25.387-88.268,59.967h283.125
	c1.281,2.937,2.433,5.943,3.437,9.018V400H119.703C117.515,406.936,116.032,414.189,115.381,421.682z"/>
<path style="fill:#D93131;" d="M408.671,166.129c-18.037-33.107-53.124-55.275-93.029-55.275H196.358
	c-39.905,0-74.992,22.168-93.029,55.275l1.027-11.808c18.317-32.099,52.832-53.468,92.002-53.468h119.284
	c39.171,0,73.685,21.369,92.002,53.468L408.671,166.129z"/>
<g>
</g>
<g>
</g>
<g>
</g>
<g>
</g>
<g>
</g>
<g>
</g>
<g>
</g>
<g>
</g>
<g>
</g>
<g>
</g>
<g>
</g>
<g>
</g>
<g>
</g>
<g>
</g>
<g>
</g>
</svg>
